#!OML:ASF H:\GeneralSubjects\Female5\Project 1\Capture day 1\Session 1\Female5.ASF
:FULLY-SPECIFIED
:DEGREES
346
root 33.9955 15.8832 4.78817 433.221 268.271 297.66
lowerback 14.9187 -1.65084 -11.2079
upperback -11.3984 -4.18184 7.89985
thorax -20.4417 0.594532 17.4959
lowerneck -15.8708 1.70499 0.506232
upperneck 26.0491 4.05432 -8.25754
head 11.2914 0.620319 -2.57831
rclavicle 4.92986e-014 -4.13472e-014
rhumerus -59.2649 36.5297 -87.445
rradius 40.7225
rwrist -14.9323
rhand -22.0391 -20.5458
rfingers 7.12502
rthumb 4.37101 -50.4807
lclavicle 4.92986e-014 -4.13472e-014
lhumerus -50.5756 8.63383 82.5096
lradius 38.8217
lwrist -4.12412
lhand -25.5529 30.3662
lfingers 7.12502
lthumb 0.977522 60.3437
rfemur -29.8266 -8.42159 25.3956
rtibia 37.4653
rfoot -23.4964 -22.5257
rtoes -13.2932
lfemur -1.50198 -22.9528 -35.4413
ltibia 2.72927
lfoot -36.952 -12.9496
ltoes -16.6849
347
root 33.7864 15.8665 4.77067 468.777 268.215 261.929
lowerback 15.2191 -1.75907 -11.89
upperback -11.3612 -4.51978 7.9667
thorax -20.4134 0.562322 18.1275
lowerneck -15.8974 1.5936 0.395779
upperneck 25.8286 3.91255 -8.21653
head 11.2024 0.562553 -2.55712
rclavicle 4.29375e-014 6.36111e-015
rhumerus -60.0941 37.0005 -88.0521
rradius 40.2694
rwrist -15.019
rhand -22.1265 -20.1772
rfingers 7.12502
rthumb 4.28665 -50.1138
lclavicle 4.29375e-014 6.36111e-015
lhumerus -49.5458 7.72906 83.5676
lradius 40.5583
lwrist -3.56834
lhand -25.4013 29.6217
lfingers 7.12502
lthumb 1.12394 59.5985
rfemur -30.9655 -7.35271 25.2661
rtibia 34.0333
rfoot -22.6116 -22.235
rtoes -15.7111
lfemur 0.360603 -23.9469 -36.2124
ltibia 1.71348
lfoot -37.0282 -13.0599
ltoes -16.9226
348
root 33.576 15.8361 4.76548 485.186 267.798 245.502
lowerback 15.3689 -1.81199 -12.3718
upperback -11.3572 -4.7298 7.97331
thorax -20.3898 0.546991 18.5089
lowerneck -16.0445 1.53419 0.313012
upperneck 25.7358 3.86468 -8.24294
head 11.194 0.532666 -2.5566
rclavicle 6.75868e-015 -9.70069e-014
rhumerus -60.7371 37.4052 -88.4639
rradius 39.7092
rwrist -14.6727
rhand -22.5125 -20.1738
rfingers 7.12502
rthumb 3.91391 -50.1176
lclavicle 6.75868e-015 -9.70069e-014
lhumerus -48.5825 6.99826 84.4054
lradius 42.1461
lwrist -3.1567
lhand -25.4759 28.9585
lfingers 7.12502
lthumb 1.05191 58.9356
rfemur -32.1976 -5.77503 24.8893
rtibia 30.3414
rfoot -21.3993 -21.5453
rtoes -16.6376
lfemur 2.09933 -24.7906 -37.0408
ltibia 0.590018
lfoot -36.9932 -14.0721
ltoes -14.2899
349
root 33.3704 15.8013 4.76007 496.485 267.123 234.283
lowerback 15.55 -1.89092 -12.8913
upperback -11.411 -4.99877 7.9815
thorax -20.4332 0.525467 18.9486
lowerneck -16.3949 1.47433 0.105873
upperneck 25.9106 3.85017 -8.19409
head 11.3261 0.498758 -2.51089
rclavicle -2.42517e-014 -9.54166e-015
rhumerus -61.1907 37.741 -88.6321
rradius 39.0482
rwrist -14.4232
rhand -22.1944 -20.9299
rfingers 7.12502
rthumb 4.22104 -50.8678
lclavicle -2.42517e-014 -9.54166e-015
lhumerus -47.7573 6.12607 85.384
lradius 43.8537
lwrist -2.66626
lhand -26.0912 28.4801
lfingers 7.12502
lthumb 0.45762 58.4594
rfemur -33.2437 -3.92674 24.027
rtibia 26.1432
rfoot -19.7963 -21.7047
rtoes -17.5518
lfemur 3.40022 -25.6287 -37.9094
ltibia -0.0167173
lfoot -36.6245 -15.6427
ltoes -11.099
350
root 33.1572 15.7663 4.74644 503.335 266.28 227.582
lowerback 15.6752 -1.97444 -13.6003
upperback -11.4998 -5.32355 8.00736
thorax -20.4426 0.508567 19.5443
lowerneck -16.7226 1.43793 -0.21168
upperneck 26.0719 3.8662 -8.01132
head 11.4453 0.486206 -2.39126
rclavicle 6.02318e-014 -7.63333e-014
rhumerus -61.6625 37.9983 -88.6713
rradius 38.5317
rwrist -14.661
rhand -21.1773 -20.864
rfingers 7.12502
rthumb 5.20319 -50.7802
lclavicle 6.02318e-014 -7.63333e-014
lhumerus -47.013 5.57744 86.2144
lradius 45.2243
lwrist -2.76531
lhand -25.8635 28.179
lfingers 7.12502
lthumb 0.677559 58.1577
rfemur -33.8911 -1.56006 22.5776
rtibia 21.2594
rfoot -18.6082 -22.3811
rtoes -17.4877
lfemur 4.5231 -26.4437 -38.8085
ltibia -0.354666
lfoot -35.9261 -17.6033
ltoes -8.42194
351
root 32.9356 15.7288 4.72885 507.899 265.538 223.21
lowerback 15.7892 -2.05618 -14.2034
upperback -11.5826 -5.61687 8.05427
thorax -20.4499 0.490698 20.0923
lowerneck -16.9335 1.40774 -0.322682
upperneck 25.968 3.90047 -8.14165
head 11.4529 0.475459 -2.41301
rclavicle 2.3059e-014 3.18055e-015
rhumerus -61.9736 38.1726 -88.506
rradius 38.0582
rwrist -14.9947
rhand -20.5878 -20.5307
rfingers 7.12502
rthumb 5.77233 -50.4321
lclavicle 2.3059e-014 3.18055e-015
lhumerus -46.2767 5.18795 86.9076
lradius 46.2336
lwrist -3.21771
lhand -26.1781 28.1162
lfingers 7.12502
lthumb 0.373715 58.0957
rfemur -34.2207 1.75015 20.585
rtibia 15.9492
rfoot -18.6708 -23.3892
rtoes -17.8577
lfemur 5.76694 -27.4673 -39.6755
ltibia -0.800212
lfoot -35.7113 -18.9178
ltoes -6.6762
352
root 32.7044 15.6855 4.71559 512.132 264.967 219.157
lowerback 15.8734 -2.13899 -14.499
upperback -11.6649 -5.82656 8.11217
thorax -20.4934 0.467222 20.4395
lowerneck -16.9538 1.35365 -0.206571
upperneck 25.7005 3.89093 -8.55669
head 11.3689 0.44038 -2.5811
rclavicle -6.93758e-014 6.20208e-014
rhumerus -62.0956 38.204 -88.1611
rradius 37.4595
rwrist -15.1406
rhand -20.4804 -20.8403
rfingers 7.12502
rthumb 5.87602 -50.7388
lclavicle -6.93758e-014 6.20208e-014
lhumerus -45.7053 4.6974 87.5366
lradius 47.1824
lwrist -3.49347
lhand -25.8669 28.4289
lfingers 7.12502
lthumb 0.674302 58.4076
rfemur -34.2749 6.60903 17.7521
rtibia 10.4339
rfoot -20.7479 -25.248
rtoes -16.1833
lfemur 7.36944 -29.0941 -40.637
ltibia -1.44926
lfoot -36.8014 -19.4004
ltoes -6.64405
